0
SECTION
2
HEADER
9
$INSUNITS
70
4
0
ENDSEC
0
SECTION
2
TABLES
0
TABLE
2
LTYPE
0
LTYPE
72
65
70
64
2
CONTINUOUS
3
______
73
0
40
0
0
ENDTAB
0
TABLE
2
LAYER
0
ENDTAB
0
ENDSEC
0
SECTION
2
ENTITIES
0
LINE
8
front_outsideCutPath
10
0
20
134.6
11
0
21
110.38615
0
LINE
8
front_outsideCutPath
10
0
20
110.38615
11
3
21
110.38615
0
LINE
8
front_outsideCutPath
10
3
20
110.38615
11
3
21
82.66205
0
LINE
8
front_outsideCutPath
10
3
20
82.66205
11
0
21
82.66205
0
LINE
8
front_outsideCutPath
10
0
20
82.66205
11
0
21
54.93795
0
LINE
8
front_outsideCutPath
10
0
20
54.93795
11
3
21
54.93795
0
LINE
8
front_outsideCutPath
10
3
20
54.93795
11
3
21
27.21385
0
LINE
8
front_outsideCutPath
10
3
20
27.21385
11
0
21
27.21385
0
LINE
8
front_outsideCutPath
10
0
20
27.21385
11
0
21
3
0
LINE
8
front_outsideCutPath
10
0
20
3
11
36.93795
21
3
0
LINE
8
front_outsideCutPath
10
36.93795
20
3
11
36.93795
21
6
0
LINE
8
front_outsideCutPath
10
36.93795
20
6
11
64.66205
21
6
0
LINE
8
front_outsideCutPath
10
64.66205
20
6
11
64.66205
21
3
0
LINE
8
front_outsideCutPath
10
64.66205
20
3
11
92.38615
21
3
0
LINE
8
front_outsideCutPath
10
92.38615
20
3
11
101.6
21
3
0
LINE
8
front_outsideCutPath
10
101.6
20
3
11
101.6
21
27.21385
0
LINE
8
front_outsideCutPath
10
101.6
20
27.21385
11
98.6
21
27.21385
0
LINE
8
front_outsideCutPath
10
98.6
20
27.21385
11
98.6
21
54.93795
0
LINE
8
front_outsideCutPath
10
98.6
20
54.93795
11
101.6
21
54.93795
0
LINE
8
front_outsideCutPath
10
101.6
20
54.93795
11
101.6
21
82.66205
0
LINE
8
front_outsideCutPath
10
101.6
20
82.66205
11
98.6
21
82.66205
0
LINE
8
front_outsideCutPath
10
98.6
20
82.66205
11
98.6
21
110.38615
0
LINE
8
front_outsideCutPath
10
98.6
20
110.38615
11
101.6
21
110.38615
0
LINE
8
front_outsideCutPath
10
101.6
20
110.38615
11
101.6
21
134.6
0
LINE
8
front_outsideCutPath
10
101.6
20
134.6
11
64.66205
21
134.6
0
LINE
8
front_outsideCutPath
10
64.66205
20
134.6
11
64.66205
21
131.6
0
LINE
8
front_outsideCutPath
10
64.66205
20
131.6
11
36.93795
21
131.6
0
LINE
8
front_outsideCutPath
10
36.93795
20
131.6
11
36.93795
21
134.6
0
LINE
8
front_outsideCutPath
10
36.93795
20
134.6
11
9.21385
21
134.6
0
LINE
8
front_outsideCutPath
10
9.21385
20
134.6
11
0
21
134.6
0
LINE
8
left_outsideCutPath
10
107.6
20
134.6
11
107.6
21
110.38615
0
LINE
8
left_outsideCutPath
10
107.6
20
110.38615
11
104.6
21
110.38615
0
LINE
8
left_outsideCutPath
10
104.6
20
110.38615
11
104.6
21
82.66205
0
LINE
8
left_outsideCutPath
10
104.6
20
82.66205
11
107.6
21
82.66205
0
LINE
8
left_outsideCutPath
10
107.6
20
82.66205
11
107.6
21
54.93795
0
LINE
8
left_outsideCutPath
10
107.6
20
54.93795
11
104.6
21
54.93795
0
LINE
8
left_outsideCutPath
10
104.6
20
54.93795
11
104.6
21
27.21385
0
LINE
8
left_outsideCutPath
10
104.6
20
27.21385
11
107.6
21
27.21385
0
LINE
8
left_outsideCutPath
10
107.6
20
27.21385
11
107.6
21
3
0
LINE
8
left_outsideCutPath
10
107.6
20
3
11
121.53795
21
3
0
LINE
8
left_outsideCutPath
10
121.53795
20
3
11
121.53795
21
6
0
LINE
8
left_outsideCutPath
10
121.53795
20
6
11
149.26205
21
6
0
LINE
8
left_outsideCutPath
10
149.26205
20
6
11
149.26205
21
3
0
LINE
8
left_outsideCutPath
10
149.26205
20
3
11
163.2
21
3
0
LINE
8
left_outsideCutPath
10
163.2
20
3
11
163.2
21
27.21385
0
LINE
8
left_outsideCutPath
10
163.2
20
27.21385
11
166.2
21
27.21385
0
LINE
8
left_outsideCutPath
10
166.2
20
27.21385
11
166.2
21
54.93795
0
LINE
8
left_outsideCutPath
10
166.2
20
54.93795
11
163.2
21
54.93795
0
LINE
8
left_outsideCutPath
10
163.2
20
54.93795
11
163.2
21
82.66205
0
LINE
8
left_outsideCutPath
10
163.2
20
82.66205
11
166.2
21
82.66205
0
LINE
8
left_outsideCutPath
10
166.2
20
82.66205
11
166.2
21
110.38615
0
LINE
8
left_outsideCutPath
10
166.2
20
110.38615
11
163.2
21
110.38615
0
LINE
8
left_outsideCutPath
10
163.2
20
110.38615
11
163.2
21
134.6
0
LINE
8
left_outsideCutPath
10
163.2
20
134.6
11
149.26205
21
134.6
0
LINE
8
left_outsideCutPath
10
149.26205
20
134.6
11
149.26205
21
131.6
0
LINE
8
left_outsideCutPath
10
149.26205
20
131.6
11
121.53795
21
131.6
0
LINE
8
left_outsideCutPath
10
121.53795
20
131.6
11
121.53795
21
134.6
0
LINE
8
left_outsideCutPath
10
121.53795
20
134.6
11
107.6
21
134.6
0
LINE
8
top_outsideCutPath
10
172.2
20
61.6
11
172.2
21
47.66205
0
LINE
8
top_outsideCutPath
10
172.2
20
47.66205
11
169.2
21
47.66205
0
LINE
8
top_outsideCutPath
10
169.2
20
47.66205
11
169.2
21
19.93795
0
LINE
8
top_outsideCutPath
10
169.2
20
19.93795
11
172.2
21
19.93795
0
LINE
8
top_outsideCutPath
10
172.2
20
19.93795
11
172.2
21
6
0
LINE
8
top_outsideCutPath
10
172.2
20
6
11
206.13795
21
6
0
LINE
8
top_outsideCutPath
10
206.13795
20
6
11
206.13795
21
3
0
LINE
8
top_outsideCutPath
10
206.13795
20
3
11
233.86205
21
3
0
LINE
8
top_outsideCutPath
10
233.86205
20
3
11
233.86205
21
6
0
LINE
8
top_outsideCutPath
10
233.86205
20
6
11
261.58615
21
6
0
LINE
8
top_outsideCutPath
10
261.58615
20
6
11
267.8
21
6
0
LINE
8
top_outsideCutPath
10
267.8
20
6
11
267.8
21
19.93795
0
LINE
8
top_outsideCutPath
10
267.8
20
19.93795
11
270.8
21
19.93795
0
LINE
8
top_outsideCutPath
10
270.8
20
19.93795
11
270.8
21
47.66205
0
LINE
8
top_outsideCutPath
10
270.8
20
47.66205
11
267.8
21
47.66205
0
LINE
8
top_outsideCutPath
10
267.8
20
47.66205
11
267.8
21
61.6
0
LINE
8
top_outsideCutPath
10
267.8
20
61.6
11
233.86205
21
61.6
0
LINE
8
top_outsideCutPath
10
233.86205
20
61.6
11
233.86205
21
64.6
0
LINE
8
top_outsideCutPath
10
233.86205
20
64.6
11
206.13795
21
64.6
0
LINE
8
top_outsideCutPath
10
206.13795
20
64.6
11
206.13795
21
61.6
0
LINE
8
top_outsideCutPath
10
206.13795
20
61.6
11
178.41385
21
61.6
0
LINE
8
top_outsideCutPath
10
178.41385
20
61.6
11
172.2
21
61.6
0
LINE
8
back_outsideCutPath
10
0
20
269.2
11
0
21
244.98615
0
LINE
8
back_outsideCutPath
10
0
20
244.98615
11
3
21
244.98615
0
LINE
8
back_outsideCutPath
10
3
20
244.98615
11
3
21
217.26205
0
LINE
8
back_outsideCutPath
10
3
20
217.26205
11
0
21
217.26205
0
LINE
8
back_outsideCutPath
10
0
20
217.26205
11
0
21
189.53795
0
LINE
8
back_outsideCutPath
10
0
20
189.53795
11
3
21
189.53795
0
LINE
8
back_outsideCutPath
10
3
20
189.53795
11
3
21
161.81385
0
LINE
8
back_outsideCutPath
10
3
20
161.81385
11
0
21
161.81385
0
LINE
8
back_outsideCutPath
10
0
20
161.81385
11
0
21
137.6
0
LINE
8
back_outsideCutPath
10
0
20
137.6
11
36.93795
21
137.6
0
LINE
8
back_outsideCutPath
10
36.93795
20
137.6
11
36.93795
21
140.6
0
LINE
8
back_outsideCutPath
10
36.93795
20
140.6
11
64.66205
21
140.6
0
LINE
8
back_outsideCutPath
10
64.66205
20
140.6
11
64.66205
21
137.6
0
LINE
8
back_outsideCutPath
10
64.66205
20
137.6
11
92.38615
21
137.6
0
LINE
8
back_outsideCutPath
10
92.38615
20
137.6
11
101.6
21
137.6
0
LINE
8
back_outsideCutPath
10
101.6
20
137.6
11
101.6
21
161.81385
0
LINE
8
back_outsideCutPath
10
101.6
20
161.81385
11
98.6
21
161.81385
0
LINE
8
back_outsideCutPath
10
98.6
20
161.81385
11
98.6
21
189.53795
0
LINE
8
back_outsideCutPath
10
98.6
20
189.53795
11
101.6
21
189.53795
0
LINE
8
back_outsideCutPath
10
101.6
20
189.53795
11
101.6
21
217.26205
0
LINE
8
back_outsideCutPath
10
101.6
20
217.26205
11
98.6
21
217.26205
0
LINE
8
back_outsideCutPath
10
98.6
20
217.26205
11
98.6
21
244.98615
0
LINE
8
back_outsideCutPath
10
98.6
20
244.98615
11
101.6
21
244.98615
0
LINE
8
back_outsideCutPath
10
101.6
20
244.98615
11
101.6
21
269.2
0
LINE
8
back_outsideCutPath
10
101.6
20
269.2
11
64.66205
21
269.2
0
LINE
8
back_outsideCutPath
10
64.66205
20
269.2
11
64.66205
21
266.2
0
LINE
8
back_outsideCutPath
10
64.66205
20
266.2
11
36.93795
21
266.2
0
LINE
8
back_outsideCutPath
10
36.93795
20
266.2
11
36.93795
21
269.2
0
LINE
8
back_outsideCutPath
10
36.93795
20
269.2
11
9.21385
21
269.2
0
LINE
8
back_outsideCutPath
10
9.21385
20
269.2
11
0
21
269.2
0
LINE
8
right_outsideCutPath
10
107.6
20
269.2
11
107.6
21
244.98615
0
LINE
8
right_outsideCutPath
10
107.6
20
244.98615
11
104.6
21
244.98615
0
LINE
8
right_outsideCutPath
10
104.6
20
244.98615
11
104.6
21
217.26205
0
LINE
8
right_outsideCutPath
10
104.6
20
217.26205
11
107.6
21
217.26205
0
LINE
8
right_outsideCutPath
10
107.6
20
217.26205
11
107.6
21
189.53795
0
LINE
8
right_outsideCutPath
10
107.6
20
189.53795
11
104.6
21
189.53795
0
LINE
8
right_outsideCutPath
10
104.6
20
189.53795
11
104.6
21
161.81385
0
LINE
8
right_outsideCutPath
10
104.6
20
161.81385
11
107.6
21
161.81385
0
LINE
8
right_outsideCutPath
10
107.6
20
161.81385
11
107.6
21
137.6
0
LINE
8
right_outsideCutPath
10
107.6
20
137.6
11
121.53795
21
137.6
0
LINE
8
right_outsideCutPath
10
121.53795
20
137.6
11
121.53795
21
140.6
0
LINE
8
right_outsideCutPath
10
121.53795
20
140.6
11
149.26205
21
140.6
0
LINE
8
right_outsideCutPath
10
149.26205
20
140.6
11
149.26205
21
137.6
0
LINE
8
right_outsideCutPath
10
149.26205
20
137.6
11
163.2
21
137.6
0
LINE
8
right_outsideCutPath
10
163.2
20
137.6
11
163.2
21
161.81385
0
LINE
8
right_outsideCutPath
10
163.2
20
161.81385
11
166.2
21
161.81385
0
LINE
8
right_outsideCutPath
10
166.2
20
161.81385
11
166.2
21
189.53795
0
LINE
8
right_outsideCutPath
10
166.2
20
189.53795
11
163.2
21
189.53795
0
LINE
8
right_outsideCutPath
10
163.2
20
189.53795
11
163.2
21
217.26205
0
LINE
8
right_outsideCutPath
10
163.2
20
217.26205
11
166.2
21
217.26205
0
LINE
8
right_outsideCutPath
10
166.2
20
217.26205
11
166.2
21
244.98615
0
LINE
8
right_outsideCutPath
10
166.2
20
244.98615
11
163.2
21
244.98615
0
LINE
8
right_outsideCutPath
10
163.2
20
244.98615
11
163.2
21
269.2
0
LINE
8
right_outsideCutPath
10
163.2
20
269.2
11
149.26205
21
269.2
0
LINE
8
right_outsideCutPath
10
149.26205
20
269.2
11
149.26205
21
266.2
0
LINE
8
right_outsideCutPath
10
149.26205
20
266.2
11
121.53795
21
266.2
0
LINE
8
right_outsideCutPath
10
121.53795
20
266.2
11
121.53795
21
269.2
0
LINE
8
right_outsideCutPath
10
121.53795
20
269.2
11
107.6
21
269.2
0
LINE
8
bottom_outsideCutPath
10
172.2
20
126.2
11
172.2
21
112.26205
0
LINE
8
bottom_outsideCutPath
10
172.2
20
112.26205
11
169.2
21
112.26205
0
LINE
8
bottom_outsideCutPath
10
169.2
20
112.26205
11
169.2
21
84.53795
0
LINE
8
bottom_outsideCutPath
10
169.2
20
84.53795
11
172.2
21
84.53795
0
LINE
8
bottom_outsideCutPath
10
172.2
20
84.53795
11
172.2
21
70.6
0
LINE
8
bottom_outsideCutPath
10
172.2
20
70.6
11
206.13795
21
70.6
0
LINE
8
bottom_outsideCutPath
10
206.13795
20
70.6
11
206.13795
21
67.6
0
LINE
8
bottom_outsideCutPath
10
206.13795
20
67.6
11
233.86205
21
67.6
0
LINE
8
bottom_outsideCutPath
10
233.86205
20
67.6
11
233.86205
21
70.6
0
LINE
8
bottom_outsideCutPath
10
233.86205
20
70.6
11
261.58615
21
70.6
0
LINE
8
bottom_outsideCutPath
10
261.58615
20
70.6
11
267.8
21
70.6
0
LINE
8
bottom_outsideCutPath
10
267.8
20
70.6
11
267.8
21
84.53795
0
LINE
8
bottom_outsideCutPath
10
267.8
20
84.53795
11
270.8
21
84.53795
0
LINE
8
bottom_outsideCutPath
10
270.8
20
84.53795
11
270.8
21
112.26205
0
LINE
8
bottom_outsideCutPath
10
270.8
20
112.26205
11
267.8
21
112.26205
0
LINE
8
bottom_outsideCutPath
10
267.8
20
112.26205
11
267.8
21
126.2
0
LINE
8
bottom_outsideCutPath
10
267.8
20
126.2
11
233.86205
21
126.2
0
LINE
8
bottom_outsideCutPath
10
233.86205
20
126.2
11
233.86205
21
129.2
0
LINE
8
bottom_outsideCutPath
10
233.86205
20
129.2
11
206.13795
21
129.2
0
LINE
8
bottom_outsideCutPath
10
206.13795
20
129.2
11
206.13795
21
126.2
0
LINE
8
bottom_outsideCutPath
10
206.13795
20
126.2
11
178.41385
21
126.2
0
LINE
8
bottom_outsideCutPath
10
178.41385
20
126.2
11
172.2
21
126.2
0
ENDSEC
0
EOF